<svg preserveAspectRatio="none" width="100%" height="100%" overflow="visible" style="display: block;" viewBox="0 0 35 34" fill="none" xmlns="http://www.w3.org/2000/svg">
<path id="Star 2" d="M16.0583 1.71209C16.7245 0.0246476 19.1127 0.0246531 19.7789 1.7121L21.778 6.77595C22.1612 7.74655 23.2262 8.25943 24.224 7.95385L29.4295 6.35959C31.1642 5.82833 32.6532 7.69549 31.7492 9.26844L29.0366 13.9887C28.5167 14.8934 28.7797 16.0459 29.6407 16.6354L34.1327 19.7113C35.6296 20.7362 35.0982 23.0645 33.3048 23.3385L27.9231 24.1607C26.8916 24.3183 26.1546 25.2425 26.2304 26.2833L26.6264 31.713C26.7583 33.5224 24.6067 34.5586 23.2743 33.3273L19.276 29.6323C18.5096 28.9241 17.3276 28.9241 16.5612 29.6323L12.5629 33.3273C11.2306 34.5586 9.07887 33.5224 9.21082 31.713L9.60677 26.2833C9.68266 25.2425 8.94565 24.3183 7.91412 24.1607L2.53239 23.3385C0.739009 23.0645 0.207581 20.7362 1.70448 19.7113L6.19651 16.6354C7.05751 16.0459 7.32055 14.8934 6.80061 13.9887L4.08798 9.26843C3.18404 7.69549 4.67306 5.82833 6.40771 6.35959L11.6132 7.95385C12.611 8.25943 13.676 7.74655 14.0592 6.77595L16.0583 1.71209Z" fill="var(--fill-0, black)"/>
</svg>
